<?xml version="1.0" encoding="utf-8"?>
<!-- Generator: Adobe Illustrator 19.0.0, SVG Export Plug-In . SVG Version: 6.00 Build 0)  -->
<svg version="1.1" id="Layer_1" xmlns="http://www.w3.org/2000/svg" xmlns:xlink="http://www.w3.org/1999/xlink" x="0px" y="0px"
	 viewBox="0 0 50 50" style="enable-background:new 0 0 50 50;" xml:space="preserve">
<g id="XMLID_5_">
	<path id="XMLID_6_" d="M25,0C11.2,0,0,11.2,0,25c0,13.8,11.2,25,25,25c13.8,0,25-11.2,25-25C50,11.2,38.8,0,25,0L25,0z M31.5,25
		h-4.1v15h-5.6V25H18v-5.2l3.8,0l0-3c0-4.2,1.1-6.8,6.1-6.8H32v5.2h-2.6c-1.9,0-2,0.7-2,2.1v2.6H32L31.5,25z M31.5,25"/>
</g>
</svg>
