<?xml version="1.0" encoding="utf-8"?>
<!-- Generator: Adobe Illustrator 19.0.0, SVG Export Plug-In . SVG Version: 6.00 Build 0)  -->
<svg version="1.1" id="Layer_1" xmlns="http://www.w3.org/2000/svg" xmlns:xlink="http://www.w3.org/1999/xlink" x="0px" y="0px"
	 viewBox="0 0 50 50" style="enable-background:new 0 0 50 50;" xml:space="preserve">
<g id="XMLID_2_">
	<path id="XMLID_13_" d="M25,30c2.8,0,5-2.2,5-5c0-1.1-0.4-2.1-0.9-2.9C28.1,20.8,26.7,20,25,20c-1.7,0-3.1,0.8-4.1,2.1
		C20.3,22.9,20,23.9,20,25C20,27.8,22.2,30,25,30L25,30z M25,30"/>
	<path id="XMLID_10_" d="M35.9,18.9v-4.8h-0.6l-4.2,0l0,4.8L35.9,18.9z M35.9,18.9"/>
	<path id="XMLID_6_" d="M25,0C11.2,0,0,11.2,0,25c0,13.8,11.2,25,25,25c13.8,0,25-11.2,25-25C50,11.2,38.8,0,25,0L25,0z M39.2,22.1
		v11.6c0,3-2.5,5.5-5.5,5.5H16.3c-3,0-5.5-2.5-5.5-5.5V16.3c0-3,2.5-5.5,5.5-5.5h17.4c3,0,5.5,2.5,5.5,5.5V22.1z M39.2,22.1"/>
	<path id="XMLID_3_" d="M32.8,25c0,4.3-3.5,7.8-7.8,7.8c-4.3,0-7.8-3.5-7.8-7.8c0-1,0.2-2,0.6-2.9h-4.2v11.6c0,1.5,1.2,2.7,2.7,2.7
		h17.4c1.5,0,2.7-1.2,2.7-2.7V22.1h-4.2C32.6,23,32.8,24,32.8,25L32.8,25z M32.8,25"/>
</g>
</svg>
