<?xml version="1.0" encoding="utf-8"?>
<!-- Generator: Adobe Illustrator 19.0.0, SVG Export Plug-In . SVG Version: 6.00 Build 0)  -->
<svg version="1.1" id="Layer_1" xmlns="http://www.w3.org/2000/svg" xmlns:xlink="http://www.w3.org/1999/xlink" x="0px" y="0px"
	 viewBox="0 0 50 50" style="enable-background:new 0 0 50 50;" xml:space="preserve">
<g id="XMLID_5_">
	<path id="XMLID_6_" d="M25,0C11.2,0,0,11.2,0,25c0,13.8,11.2,25,25,25c13.8,0,25-11.2,25-25C50,11.2,38.8,0,25,0L25,0z M36.2,19.3
		c0,0.2,0,0.5,0,0.7c0,7.6-5.8,16.4-16.4,16.4c-3.3,0-6.3-0.9-8.8-2.6c0.5,0.1,0.9,0.1,1.4,0.1c2.7,0,5.2-0.9,7.1-2.5
		c-2.5,0-4.6-1.7-5.4-4c0.3,0.1,0.7,0.1,1.1,0.1c0.5,0,1-0.1,1.5-0.2c-2.6-0.5-4.6-2.9-4.6-5.6c0,0,0,0,0-0.1
		c0.8,0.4,1.7,0.7,2.6,0.7c-1.5-1-2.6-2.8-2.6-4.8c0-1.1,0.3-2,0.8-2.9c2.8,3.5,7.1,5.8,11.9,6c-0.1-0.4-0.1-0.9-0.1-1.3
		c0-3.2,2.6-5.8,5.8-5.8c1.7,0,3.2,0.7,4.2,1.8c1.3-0.3,2.5-0.7,3.7-1.4c-0.4,1.3-1.3,2.5-2.5,3.2c1.2-0.1,2.3-0.4,3.3-0.9
		C38.3,17.5,37.3,18.5,36.2,19.3L36.2,19.3z M36.2,19.3"/>
</g>
</svg>
