<?xml version="1.0" encoding="utf-8"?>
<!-- Generator: Adobe Illustrator 19.0.0, SVG Export Plug-In . SVG Version: 6.00 Build 0)  -->
<svg version="1.1" id="Layer_1" xmlns="http://www.w3.org/2000/svg" xmlns:xlink="http://www.w3.org/1999/xlink" x="0px" y="0px"
	 viewBox="0 0 50 50" style="enable-background:new 0 0 50 50;" xml:space="preserve">
<g id="XMLID_20_">
	<path id="XMLID_42_" d="M13.2,26.8h2v10.7h1.9V26.8h2v-1.8h-5.9V26.8z M13.2,26.8"/>
	<path id="XMLID_38_" d="M29.1,28.2c-0.6,0-1.2,0.3-1.7,1v-4.1h-1.7v12.5h1.7v-0.9c0.6,0.7,1.1,1,1.7,1c0.7,0,1.1-0.4,1.3-1
		c0.1-0.4,0.2-1,0.2-1.9v-3.7c0-0.9-0.1-1.5-0.2-1.9C30.2,28.5,29.7,28.2,29.1,28.2L29.1,28.2z M28.9,34.9c0,0.8-0.2,1.3-0.7,1.3
		c-0.3,0-0.6-0.1-0.8-0.4v-5.7c0.3-0.3,0.6-0.4,0.8-0.4c0.5,0,0.7,0.4,0.7,1.3V34.9z M28.9,34.9"/>
	<path id="XMLID_35_" d="M22.5,35.4c-0.4,0.5-0.7,0.8-1.1,0.8c-0.2,0-0.4-0.1-0.4-0.4c0-0.1,0-0.3,0-0.7v-6.8h-1.7v7.4
		c0,0.7,0.1,1.1,0.2,1.4c0.2,0.5,0.5,0.7,1.1,0.7c0.6,0,1.3-0.4,1.9-1.1v1h1.7v-9.3h-1.7V35.4z M22.5,35.4"/>
	<path id="XMLID_32_" d="M23.9,19.7c0.5,0,0.8-0.4,0.8-1.3v-4c0-0.9-0.3-1.3-0.8-1.3c-0.5,0-0.8,0.4-0.8,1.3v4
		C23.1,19.2,23.4,19.7,23.9,19.7L23.9,19.7z M23.9,19.7"/>
	<path id="XMLID_25_" d="M25.1,0c-13.8,0-25,11.2-25,25c0,13.8,11.2,25,25,25c13.8,0,25-11.2,25-25C50.1,11.2,38.9,0,25.1,0L25.1,0z
		 M27.9,11.7h1.7v6.9c0,0.4,0,0.6,0,0.7c0,0.3,0.2,0.4,0.4,0.4c0.3,0,0.7-0.3,1.1-0.8v-7.2h1.7v9.4h-1.7v-1
		c-0.7,0.8-1.3,1.2-1.9,1.2c-0.5,0-0.9-0.2-1.1-0.7c-0.1-0.3-0.2-0.7-0.2-1.4V11.7z M21.4,14.8c0-1,0.2-1.7,0.5-2.2
		c0.5-0.6,1.1-1,2-1c0.9,0,1.5,0.3,2,1c0.4,0.5,0.5,1.2,0.5,2.2v3.3c0,1-0.2,1.7-0.5,2.2c-0.5,0.6-1.1,1-2,1c-0.8,0-1.5-0.3-2-1
		c-0.4-0.5-0.5-1.2-0.5-2.2V14.8z M16.9,8.5l1.3,5l1.3-5h1.9L19.1,16v5.1h-1.9V16c-0.2-0.9-0.5-2.2-1.2-4c-0.4-1.2-0.8-2.3-1.2-3.5
		H16.9z M38.5,38.4c-0.3,1.5-1.6,2.6-3,2.7c-3.5,0.4-7,0.4-10.4,0.4c-3.5,0-7,0-10.4-0.4c-1.5-0.2-2.7-1.3-3-2.7
		c-0.5-2.1-0.5-4.4-0.5-6.6c0-2.2,0-4.5,0.5-6.6c0.3-1.5,1.6-2.6,3-2.7c3.5-0.4,7-0.4,10.4-0.4c3.5,0,7,0,10.4,0.4
		c1.5,0.2,2.7,1.3,3,2.7c0.5,2.1,0.5,4.4,0.5,6.6C39,34,39,36.3,38.5,38.4L38.5,38.4z M38.5,38.4"/>
	<path id="XMLID_21_" d="M34.4,28.2c-0.9,0-1.5,0.3-2,1c-0.4,0.5-0.5,1.2-0.5,2.2v3.3c0,1,0.2,1.7,0.5,2.2c0.5,0.6,1.2,1,2,1
		c0.9,0,1.6-0.3,2-1c0.2-0.3,0.3-0.6,0.4-1c0-0.2,0-0.5,0-1.1v-0.2h-1.7c0,0.7,0,1,0,1.1c-0.1,0.4-0.3,0.7-0.8,0.7
		c-0.6,0-0.9-0.4-0.9-1.3v-1.7h3.4v-1.9c0-1-0.2-1.7-0.5-2.2C36,28.5,35.3,28.2,34.4,28.2L34.4,28.2z M35.3,31.8h-1.7V31
		c0-0.9,0.3-1.3,0.8-1.3c0.6,0,0.8,0.4,0.8,1.3V31.8z M35.3,31.8"/>
</g>
</svg>
